<svg width="24" height="24" viewBox="0 0 24 24" fill="none" xmlns="http://www.w3.org/2000/svg">
<mask id="mask0_1_3641" style="mask-type:luminance" maskUnits="userSpaceOnUse" x="0" y="0" width="24" height="24">
<rect width="24" height="24" fill="white"/>
</mask>
<g mask="url(#mask0_1_3641)">
<path d="M11.3715 1.7759C11.74 1.62563 12.1531 1.62792 12.5198 1.78227L22.5318 5.99566C23.0882 6.22979 23.45 6.7746 23.45 7.37822V15.9731C23.45 16.5507 23.1183 17.077 22.5973 17.3263L12.537 22.1386C12.1299 22.3333 11.6567 22.3344 11.2487 22.1416L1.35899 17.467C0.834512 17.2191 0.5 16.691 0.5 16.1109V7.21792C0.5 6.60825 0.869014 6.05923 1.43354 5.82899L11.3715 1.7759Z" fill="#C19F72" stroke="#485050"/>
<path fill-rule="evenodd" clip-rule="evenodd" d="M18.6295 16.4689C19.9883 15.8582 21.1235 14.834 21.8864 13.5304L21.8725 13.5366C21.9844 13.3303 21.7489 13.1986 21.6109 13.3539C20.7102 14.3569 19.6202 15.1612 18.4036 15.7206C16.7727 16.4614 14.9689 16.7449 13.1709 16.5432C13.0353 16.5236 12.992 16.689 13.1296 16.7356C14.9518 17.357 16.9136 17.2619 18.6295 16.4689ZM20.5497 13.6279C20.9167 13.4258 21.6956 12.9968 21.9006 13.0588L21.9193 13.0504C22.1238 13.1104 22.0542 13.7653 22.0219 14.0687L22.0209 14.0783C22.0124 14.1686 22.1153 14.1558 22.1876 14.0575C22.6319 13.4403 22.4536 12.6271 22.2792 12.5801C22.1048 12.5331 20.9784 12.9301 20.4605 13.5419C20.3791 13.6366 20.4281 13.6962 20.5359 13.6355L20.5497 13.6279Z" fill="#485050"/>
<path fill-rule="evenodd" clip-rule="evenodd" d="M17 9.80042L18.95 9.05V12.3032C18.95 12.6415 18.7747 12.9556 18.4868 13.1331C17.8372 13.5337 17 13.0664 17 12.3032V9.80042Z" fill="#485050"/>
<path d="M12 21.4282V11.5" stroke="#485050" stroke-linecap="round"/>
<path fill-rule="evenodd" clip-rule="evenodd" d="M7.62415 3.34949L18.8077 8.13916L17 9.1651L5.336 4.05L7.62415 3.34949Z" fill="#485050"/>
<path d="M12.45 11.5L21.45 7.5" stroke="#485050" stroke-linecap="round"/>
<path d="M11.95 11.5L4.00001 8.05" stroke="#485050" stroke-linecap="round"/>
</g>
</svg>
