<svg width="34" height="40" viewBox="0 0 34 40" fill="none" xmlns="http://www.w3.org/2000/svg">
<path d="M17 40C18.6569 40 20 39.3284 20 38.5C20 37.6716 18.6569 37 17 37C15.3431 37 14 37.6716 14 38.5C14 39.3284 15.3431 40 17 40Z" fill="black" fill-opacity="0.5"/>
<g filter="url(#filter0_d_1_3583)">
<path fill-rule="evenodd" clip-rule="evenodd" d="M17 2C25.2843 2 32 8.71573 32 17C32 23.9318 27.298 29.7655 20.9095 31.4854L17 38L13.0915 31.4857C6.70249 29.7661 2 23.9322 2 17C2 8.71573 8.71573 2 17 2Z" fill="white"/>
</g>
<circle cx="17" cy="17" r="13" fill="#565555"/>
<path d="M13.3364 22V20.908C14.6804 19.5453 15.6604 18.5047 16.2764 17.786C16.9018 17.058 17.3311 16.4747 17.5644 16.036C17.7978 15.5973 17.9144 15.182 17.9144 14.79C17.9144 14.3233 17.7698 13.9593 17.4804 13.698C17.2004 13.4273 16.8178 13.292 16.3324 13.292C15.5018 13.292 14.5918 13.642 13.6024 14.342V13.152C14.0598 12.788 14.5218 12.522 14.9884 12.354C15.4644 12.1767 15.9824 12.088 16.5424 12.088C17.3918 12.088 18.0731 12.326 18.5864 12.802C19.1091 13.278 19.3704 13.908 19.3704 14.692C19.3704 15.2147 19.2304 15.7467 18.9504 16.288C18.6704 16.82 18.2131 17.4407 17.5784 18.15C16.9531 18.8593 16.0758 19.7553 14.9464 20.838H19.8184V22H13.3364Z" fill="white"/>
<defs>
<filter id="filter0_d_1_3583" x="0" y="0" width="34" height="40" filterUnits="userSpaceOnUse" color-interpolation-filters="sRGB">
<feFlood flood-opacity="0" result="BackgroundImageFix"/>
<feColorMatrix in="SourceAlpha" type="matrix" values="0 0 0 0 0 0 0 0 0 0 0 0 0 0 0 0 0 0 127 0" result="hardAlpha"/>
<feOffset/>
<feGaussianBlur stdDeviation="1"/>
<feComposite in2="hardAlpha" operator="out"/>
<feColorMatrix type="matrix" values="0 0 0 0 0 0 0 0 0 0 0 0 0 0 0 0 0 0 0.5 0"/>
<feBlend mode="normal" in2="BackgroundImageFix" result="effect1_dropShadow_1_3583"/>
<feBlend mode="normal" in="SourceGraphic" in2="effect1_dropShadow_1_3583" result="shape"/>
</filter>
</defs>
</svg>
