<svg width="52" height="52" viewBox="0 0 52 52" fill="none" xmlns="http://www.w3.org/2000/svg">
<g filter="url(#filter0_d_1_2981)">
<circle cx="26" cy="24" r="22" fill="white"/>
</g>
<path fill-rule="evenodd" clip-rule="evenodd" d="M37.1133 25.7836C37.5324 25.9909 37.752 26.461 37.6419 26.9154C37.3629 28.0669 36.9142 29.1704 36.3103 30.1897C36.0688 30.5974 35.5744 30.7796 35.1261 30.6261C34.4038 30.3788 33.6038 30.5642 33.064 31.104C32.5242 31.6438 32.3388 32.4438 32.5861 33.1661C32.7396 33.6144 32.5573 34.1089 32.1496 34.3504C31.1303 34.9542 30.0268 35.4029 28.8754 35.6819C28.4234 35.7914 27.9556 35.5748 27.7466 35.1594C27.407 34.4842 26.7158 34.0582 25.96 34.0582C25.2042 34.0582 24.513 34.4842 24.1733 35.1594C23.9643 35.5748 23.4965 35.7914 23.0445 35.6819C21.8931 35.4029 20.7896 34.9542 19.7703 34.3504C19.3626 34.1089 19.1804 33.6144 19.3339 33.1661C19.5812 32.4438 19.3957 31.6438 18.8559 31.104C18.3161 30.5642 17.5161 30.3788 16.7939 30.6261C16.3456 30.7796 15.8511 30.5974 15.6096 30.1897C15.0058 29.1704 14.557 28.0669 14.2781 26.9154C14.1686 26.4635 14.3851 25.9957 14.8006 25.7867C15.4758 25.447 15.9018 24.7558 15.9018 24C15.9018 23.2442 15.4758 22.553 14.8006 22.2133C14.3851 22.0043 14.1686 21.5365 14.2781 21.0845C14.557 19.9331 15.0058 18.8296 15.6096 17.8103C15.8562 17.394 16.3656 17.214 16.8191 17.3829C17.542 17.6522 18.3553 17.4818 18.9092 16.9449C19.4631 16.4081 19.6589 15.6005 19.4124 14.8696C19.2615 14.4222 19.4441 13.9303 19.8503 13.6896C20.8696 13.0858 21.9731 12.637 23.1245 12.3581C23.5765 12.2486 24.0443 12.4652 24.2533 12.8806C24.593 13.5558 25.2842 13.9818 26.04 13.9818C26.7958 13.9818 27.487 13.5558 27.8266 12.8806C28.0356 12.4652 28.5034 12.2486 28.9554 12.3581C30.1068 12.637 31.2103 13.0858 32.2296 13.6896C32.6373 13.9311 32.8196 14.4256 32.6661 14.8739C32.4188 15.5961 32.6042 16.3961 33.144 16.9359C33.6838 17.4757 34.4838 17.6612 35.2061 17.4139C35.6544 17.2604 36.1488 17.4426 36.3903 17.8503C36.9942 18.8696 37.4429 19.9731 37.7219 21.1245C37.8346 21.5899 37.6016 22.0699 37.1662 22.2693C36.479 22.5839 36.0282 23.2587 36.0001 24.0131C36.0084 24.7653 36.4383 25.4498 37.1133 25.7836ZM34 24.003L34.0004 23.9707C34.0363 22.7453 34.6298 21.6218 35.5825 20.8998C35.428 20.418 35.2369 19.9488 35.011 19.4962C33.8152 19.6324 32.6025 19.2228 31.7298 18.3502C30.8571 17.4775 30.4475 16.2647 30.5838 15.069C30.1237 14.8393 29.6464 14.6456 29.1562 14.4898C28.4064 15.4216 27.2656 15.9818 26.04 15.9818C24.8143 15.9818 23.6736 15.4216 22.9237 14.4898C22.4326 14.646 21.9544 14.8401 21.4934 15.0704C21.6271 16.283 21.1997 17.5102 20.3011 18.3811C19.4089 19.2458 18.1803 19.6352 16.9807 19.4727C16.7546 19.9278 16.5637 20.3995 16.4098 20.8837C17.3416 21.6336 17.9018 22.7743 17.9018 24C17.9018 25.2256 17.3416 26.3664 16.4098 27.1163C16.5656 27.6064 16.7593 28.0837 16.989 28.5438C18.1847 28.4076 19.3975 28.8171 20.2701 29.6898C21.1428 30.5625 21.5524 31.7752 21.4162 32.971C21.8763 33.2007 22.3536 33.3944 22.8437 33.5502C23.5936 32.6184 24.7343 32.0582 25.96 32.0582C27.1856 32.0582 28.3264 32.6184 29.0762 33.5502C29.5664 33.3944 30.0437 33.2007 30.5038 32.971C30.3675 31.7752 30.7771 30.5625 31.6498 29.6898C32.5225 28.8171 33.7352 28.4076 34.931 28.5438C35.16 28.085 35.3532 27.6092 35.5088 27.1206C34.5705 26.3739 34.0037 25.2321 34 24.003ZM26 29C28.7614 29 31 26.7614 31 24C31 21.2386 28.7614 19 26 19C23.2386 19 21 21.2386 21 24C21 26.7614 23.2386 29 26 29ZM26 27C24.3431 27 23 25.6568 23 24C23 22.3431 24.3431 21 26 21C27.6568 21 29 22.3431 29 24C29 25.6568 27.6568 27 26 27Z" fill="#232F3E"/>
<defs>
<filter id="filter0_d_1_2981" x="0" y="0" width="52" height="52" filterUnits="userSpaceOnUse" color-interpolation-filters="sRGB">
<feFlood flood-opacity="0" result="BackgroundImageFix"/>
<feColorMatrix in="SourceAlpha" type="matrix" values="0 0 0 0 0 0 0 0 0 0 0 0 0 0 0 0 0 0 127 0" result="hardAlpha"/>
<feOffset dy="2"/>
<feGaussianBlur stdDeviation="2"/>
<feComposite in2="hardAlpha" operator="out"/>
<feColorMatrix type="matrix" values="0 0 0 0 0 0 0 0 0 0 0 0 0 0 0 0 0 0 0.5 0"/>
<feBlend mode="normal" in2="BackgroundImageFix" result="effect1_dropShadow_1_2981"/>
<feBlend mode="normal" in="SourceGraphic" in2="effect1_dropShadow_1_2981" result="shape"/>
</filter>
</defs>
</svg>
