<svg width="46" height="54" viewBox="0 0 46 54" fill="none" xmlns="http://www.w3.org/2000/svg">
<path d="M23 1C29.356 1 35.0321 3.20971 39.0116 7.37678C42.7095 11.249 45 16.8745 45 24.1313C45 29.4864 42.3349 34.7432 38.7571 39.345C35.6705 43.3149 31.9395 46.7691 28.8082 49.2302C27.2434 50.46 25.8412 51.4319 24.7585 52.0907C24.2156 52.421 23.767 52.6641 23.4272 52.8209C23.2569 52.8995 23.1279 52.95 23.0372 52.9791C23.0229 52.9836 23.0105 52.9874 23 52.9904C22.9895 52.9874 22.9771 52.9836 22.9628 52.9791C22.8721 52.95 22.7431 52.8995 22.5728 52.8209C22.233 52.6641 21.7844 52.421 21.2415 52.0907C20.1588 51.4319 18.7566 50.46 17.1918 49.2302C14.0605 46.7691 10.3295 43.3149 7.2429 39.345C3.6651 34.7432 1 29.4864 1 24.1313C1 16.8745 3.29053 11.249 6.98839 7.37678C10.9679 3.20971 16.644 1 23 1Z" fill="#348118" stroke="white" stroke-width="2"/>
<path d="M22.5606 30V19.06L19.0006 20.18V17.9L22.9006 16.14H25.5206V30H22.5606Z" fill="white"/>
</svg>
