<svg width="45" height="61" viewBox="0 0 45 61" fill="none" xmlns="http://www.w3.org/2000/svg">
<g clip-path="url(#clip0_1_3426)">
<rect width="45" height="60" rx="2" fill="white" stroke="white" stroke-width="4.5"/>
<rect width="45" height="60" rx="2" fill="white" stroke="black" stroke-width="1.5"/>
<path d="M7.11188 34.1C8.23188 33.24 9.32188 32.63 10.3819 32.27C11.4619 31.89 12.6519 31.7 13.9519 31.7C15.8519 31.7 17.3719 32.23 18.5119 33.29C19.6719 34.35 20.2519 35.75 20.2519 37.49C20.2519 38.53 19.9619 39.61 19.3819 40.73C18.8019 41.85 17.8819 43.12 16.6219 44.54C15.3619 45.94 13.6719 47.6 11.5519 49.52H21.0919V53H6.57188V49.76C9.13188 47.18 11.0419 45.17 12.3019 43.73C13.5819 42.27 14.4619 41.1 14.9419 40.22C15.4419 39.34 15.6919 38.53 15.6919 37.79C15.6919 37.03 15.4619 36.44 15.0019 36.02C14.5419 35.58 13.9219 35.36 13.1419 35.36C12.2619 35.36 11.3019 35.56 10.2619 35.96C9.22188 36.36 8.17188 36.93 7.11188 37.67V34.1ZM24.21 48.83C26.57 49.59 28.55 49.97 30.15 49.97C31.39 49.97 32.33 49.69 32.97 49.13C33.61 48.57 33.93 47.75 33.93 46.67C33.93 45.59 33.61 44.8 32.97 44.3C32.33 43.78 31.34 43.52 30 43.52C28.52 43.52 26.88 43.62 25.08 43.82V41.12L25.62 32.21H37.41V35.63H29.31L28.98 40.55C29.8 40.35 30.66 40.25 31.56 40.25C33.62 40.25 35.27 40.83 36.51 41.99C37.75 43.13 38.37 44.66 38.37 46.58C38.37 47.9 38.05 49.08 37.41 50.12C36.77 51.16 35.84 51.98 34.62 52.58C33.4 53.16 31.98 53.45 30.36 53.45C28.18 53.45 26.13 53.03 24.21 52.19V48.83Z" fill="black"/>
<path d="M7.03898 9.172C6.36698 8.916 5.87898 8.612 5.57498 8.26C5.27098 7.9 5.11898 7.452 5.11898 6.916C5.11898 6.172 5.37898 5.584 5.89898 5.152C6.42698 4.712 7.13498 4.492 8.02298 4.492C8.75898 4.492 9.50698 4.636 10.267 4.924V6.088C9.49098 5.848 8.78298 5.728 8.14298 5.728C7.07898 5.728 6.54698 6.084 6.54698 6.796C6.54698 7.068 6.64298 7.292 6.83498 7.468C7.02698 7.644 7.36698 7.82 7.85498 7.996L8.87498 8.368C9.54698 8.616 10.031 8.916 10.327 9.268C10.631 9.62 10.783 10.068 10.783 10.612C10.783 11.42 10.499 12.056 9.93098 12.52C9.36298 12.976 8.58298 13.204 7.59098 13.204C7.16698 13.204 6.74298 13.16 6.31898 13.072C5.89498 12.992 5.52298 12.876 5.20298 12.724V11.56C5.59498 11.688 6.00298 11.788 6.42698 11.86C6.85898 11.932 7.24698 11.968 7.59098 11.968C8.15898 11.968 8.59498 11.868 8.89898 11.668C9.20298 11.46 9.35498 11.164 9.35498 10.78C9.35498 10.508 9.26298 10.284 9.07898 10.108C8.89498 9.932 8.57098 9.756 8.10698 9.58L7.03898 9.172ZM13.7968 9.868V13H12.3688V4.684H15.4528C16.2848 4.684 16.9408 4.916 17.4208 5.38C17.9088 5.844 18.1528 6.476 18.1528 7.276C18.1528 8.076 17.9088 8.708 17.4208 9.172C16.9408 9.636 16.2848 9.868 15.4528 9.868H13.7968ZM13.7968 8.74H15.3088C15.7728 8.74 16.1208 8.616 16.3528 8.368C16.5928 8.12 16.7128 7.756 16.7128 7.276C16.7128 6.796 16.5928 6.432 16.3528 6.184C16.1208 5.936 15.7728 5.812 15.3088 5.812H13.7968V8.74ZM19.6461 13V4.684H24.9381V5.86H21.1101V8.14H24.2901V9.316H21.1101V11.824H24.9381V13H19.6461ZM26.4547 13V4.684H31.7467V5.86H27.9187V8.14H31.0987V9.316H27.9187V11.824H31.7467V13H26.4547ZM33.2633 13V4.684H36.1073C37.3393 4.684 38.2793 5.04 38.9273 5.752C39.5833 6.464 39.9113 7.488 39.9113 8.824C39.9113 10.168 39.5793 11.2 38.9153 11.92C38.2593 12.64 37.3193 13 36.0953 13H33.2633ZM34.7273 5.836V11.848H35.9393C37.5953 11.848 38.4233 10.888 38.4233 8.968V8.704C38.4233 6.792 37.5953 5.836 35.9393 5.836H34.7273ZM8.16173 25V16.684H9.62573V23.8H13.4537V25H8.16173ZM14.5965 25V16.684H16.0605V25H14.5965ZM24.9878 25V18.772L22.8158 22.912H21.4958L19.3958 18.796V25H18.0758V16.684H19.6838L22.1918 21.64L24.7478 16.684H26.3078V25H24.9878ZM28.3191 25V16.684H29.7831V25H28.3191ZM33.5865 25V17.884H30.9825V16.684H37.6545V17.884H35.0505V25H33.5865Z" fill="black"/>
</g>
<defs>
<clipPath id="clip0_1_3426">
<rect width="45" height="61" fill="white"/>
</clipPath>
</defs>
</svg>
