<svg width="375" height="72" viewBox="0 0 375 72" fill="none" xmlns="http://www.w3.org/2000/svg">
<rect width="375" height="72" fill="#252829"/>
<path fill-rule="evenodd" clip-rule="evenodd" d="M32.875 23.625V29.875L17.875 19.875L32.875 9.875V16.125H50.375C52.4461 16.125 54.125 17.8039 54.125 19.875V46.125H46.625V23.625H32.875Z" fill="white"/>
<path d="M23.788 55.248C23.828 55.24 23.868 55.236 23.908 55.236C23.948 55.236 23.988 55.236 24.028 55.236C24.82 55.236 25.448 55.452 25.912 55.884C26.376 56.308 26.608 56.88 26.608 57.6C26.608 58.384 26.324 59.012 25.756 59.484C25.196 59.948 24.44 60.18 23.488 60.18C22.736 60.18 21.992 60.02 21.256 59.7V58.74C22.128 59.028 22.872 59.172 23.488 59.172C24.096 59.172 24.564 59.036 24.892 58.764C25.22 58.492 25.384 58.104 25.384 57.6C25.384 56.632 24.772 56.148 23.548 56.148C23.164 56.148 22.784 56.168 22.408 56.208V55.416L24.928 52.668H21.376V51.684H26.26V52.632L23.788 55.248ZM31.0473 59.172C31.6793 59.172 32.1433 58.908 32.4393 58.38C32.7353 57.844 32.8833 56.996 32.8833 55.836C32.8833 54.692 32.7353 53.852 32.4393 53.316C32.1433 52.78 31.6793 52.512 31.0473 52.512C30.4153 52.512 29.9513 52.78 29.6553 53.316C29.3593 53.852 29.2113 54.692 29.2113 55.836C29.2113 56.988 29.3593 57.832 29.6553 58.368C29.9513 58.904 30.4153 59.172 31.0473 59.172ZM31.0473 60.18C30.0633 60.18 29.3073 59.808 28.7793 59.064C28.2513 58.312 27.9873 57.236 27.9873 55.836C27.9873 54.444 28.2473 53.376 28.7673 52.632C29.2953 51.88 30.0553 51.504 31.0473 51.504C32.0313 51.504 32.7873 51.876 33.3153 52.62C33.8433 53.364 34.1073 54.436 34.1073 55.836C34.1073 57.236 33.8433 58.312 33.3153 59.064C32.7953 59.808 32.0393 60.18 31.0473 60.18ZM38.0785 59.172C38.7105 59.172 39.1745 58.908 39.4705 58.38C39.7665 57.844 39.9145 56.996 39.9145 55.836C39.9145 54.692 39.7665 53.852 39.4705 53.316C39.1745 52.78 38.7105 52.512 38.0785 52.512C37.4465 52.512 36.9825 52.78 36.6865 53.316C36.3905 53.852 36.2425 54.692 36.2425 55.836C36.2425 56.988 36.3905 57.832 36.6865 58.368C36.9825 58.904 37.4465 59.172 38.0785 59.172ZM38.0785 60.18C37.0945 60.18 36.3385 59.808 35.8105 59.064C35.2825 58.312 35.0185 57.236 35.0185 55.836C35.0185 54.444 35.2785 53.376 35.7985 52.632C36.3265 51.88 37.0865 51.504 38.0785 51.504C39.0625 51.504 39.8185 51.876 40.3465 52.62C40.8745 53.364 41.1385 54.436 41.1385 55.836C41.1385 57.236 40.8745 58.312 40.3465 59.064C39.8265 59.808 39.0705 60.18 38.0785 60.18ZM42.9378 60V54.852H41.8098V54.084L42.9378 53.94V52.956C42.9378 51.62 43.5778 50.952 44.8578 50.952C45.3058 50.952 45.7058 51.024 46.0578 51.168V52.008C45.6498 51.944 45.3378 51.912 45.1217 51.912C44.7538 51.912 44.4938 51.984 44.3418 52.128C44.1978 52.264 44.1258 52.492 44.1258 52.812V53.916H45.9858V54.852H44.1258V60H42.9378ZM50.5541 59.856C50.1621 60.008 49.7181 60.084 49.2221 60.084C48.0861 60.084 47.5181 59.516 47.5181 58.38V54.852H46.4141V54.084L47.5541 53.94L47.7341 52.212H48.7061V53.916H50.5061V54.852H48.7061V58.32C48.7061 58.616 48.7701 58.824 48.8981 58.944C49.0341 59.064 49.2621 59.124 49.5821 59.124C49.9101 59.124 50.2341 59.084 50.5541 59.004V59.856Z" fill="white"/>
<path d="M77.16 37.728C75.736 37.2 74.712 36.56 74.088 35.808C73.464 35.04 73.152 34.072 73.152 32.904C73.152 31.4 73.704 30.2 74.808 29.304C75.928 28.408 77.424 27.96 79.296 27.96C80.864 27.96 82.4 28.248 83.904 28.824V31.56C82.352 31.08 80.912 30.84 79.584 30.84C77.696 30.84 76.752 31.448 76.752 32.664C76.752 33.112 76.912 33.48 77.232 33.768C77.568 34.056 78.184 34.36 79.08 34.68L80.856 35.328C82.344 35.872 83.4 36.512 84.024 37.248C84.664 37.968 84.984 38.912 84.984 40.08C84.984 41.728 84.392 43.032 83.208 43.992C82.024 44.936 80.4 45.408 78.336 45.408C77.44 45.408 76.544 45.32 75.648 45.144C74.752 44.984 73.984 44.76 73.344 44.472V41.736C74.144 41.976 75 42.168 75.912 42.312C76.824 42.456 77.648 42.528 78.384 42.528C79.328 42.528 80.056 42.36 80.568 42.024C81.08 41.672 81.336 41.176 81.336 40.536C81.336 40.04 81.176 39.648 80.856 39.36C80.552 39.072 79.928 38.752 78.984 38.4L77.16 37.728ZM90.3351 39.72C90.3991 40.776 90.7191 41.544 91.2951 42.024C91.8711 42.488 92.7751 42.72 94.0071 42.72C95.0791 42.72 96.3271 42.52 97.7511 42.12V44.448C97.1911 44.736 96.5191 44.96 95.7351 45.12C94.9671 45.28 94.1671 45.36 93.3351 45.36C91.3031 45.36 89.7511 44.808 88.6791 43.704C87.6231 42.6 87.0951 40.984 87.0951 38.856C87.0951 36.808 87.6231 35.216 88.6791 34.08C89.7351 32.944 91.1991 32.376 93.0711 32.376C94.6551 32.376 95.8711 32.816 96.7191 33.696C97.5831 34.56 98.0151 35.8 98.0151 37.416C98.0151 37.768 97.9911 38.168 97.9431 38.616C97.8951 39.064 97.8391 39.432 97.7751 39.72H90.3351ZM92.9511 34.8C92.1671 34.8 91.5431 35.04 91.0791 35.52C90.6311 35.984 90.3751 36.664 90.3111 37.56H95.0151V37.152C95.0151 35.584 94.3271 34.8 92.9511 34.8ZM106.103 44.76C105.431 45.032 104.711 45.168 103.943 45.168C101.783 45.168 100.703 43.96 100.703 41.544V27.24H104.207V41.256C104.207 41.704 104.279 42.024 104.423 42.216C104.583 42.392 104.839 42.48 105.191 42.48C105.415 42.48 105.719 42.456 106.103 42.408V44.76ZM118.516 45L116.404 36.384L114.268 45H110.884L106.972 32.736H110.668L112.708 41.592L114.916 32.736H118.06L120.316 41.616L122.236 32.736H125.836L121.9 45H118.516ZM131.647 45.192L126.799 32.736H130.519L133.255 41.904L135.847 32.736H139.471L134.287 46.656C133.823 47.92 133.255 48.832 132.583 49.392C131.911 49.952 131.063 50.232 130.039 50.232C129.239 50.232 128.463 50.104 127.711 49.848V47.472C128.223 47.52 128.679 47.544 129.079 47.544C129.751 47.544 130.271 47.384 130.639 47.064C131.007 46.76 131.319 46.224 131.575 45.456L131.647 45.192ZM149.122 45V36.96C149.122 36.304 148.978 35.824 148.69 35.52C148.402 35.216 147.962 35.064 147.37 35.064C146.49 35.064 145.618 35.336 144.754 35.88V45H141.25V32.736H144.13L144.466 34.056C145.906 32.936 147.442 32.376 149.074 32.376C150.21 32.376 151.082 32.688 151.69 33.312C152.314 33.92 152.626 34.792 152.626 35.928V45H149.122ZM162.467 45V28.368H168.875C170.603 28.368 171.971 28.824 172.979 29.736C173.987 30.648 174.491 31.888 174.491 33.456C174.491 34.416 174.227 35.28 173.699 36.048C173.171 36.816 172.427 37.416 171.467 37.848L175.595 45H171.875L168.275 38.544H165.923V45H162.467ZM165.923 36.048H168.419C170.099 36.048 170.939 35.2 170.939 33.504C170.939 31.84 170.115 31.008 168.467 31.008H165.923V36.048ZM182.722 45.36C180.818 45.36 179.33 44.792 178.258 43.656C177.186 42.504 176.65 40.904 176.65 38.856C176.65 36.824 177.186 35.24 178.258 34.104C179.33 32.952 180.818 32.376 182.722 32.376C184.626 32.376 186.114 32.952 187.186 34.104C188.258 35.24 188.794 36.824 188.794 38.856C188.794 40.904 188.258 42.504 187.186 43.656C186.114 44.792 184.626 45.36 182.722 45.36ZM182.722 42.672C184.402 42.672 185.242 41.4 185.242 38.856C185.242 36.328 184.402 35.064 182.722 35.064C181.042 35.064 180.202 36.328 180.202 38.856C180.202 41.4 181.042 42.672 182.722 42.672ZM198.556 45L198.268 43.92C197.772 44.368 197.196 44.728 196.54 45C195.9 45.256 195.276 45.384 194.668 45.384C193.484 45.384 192.532 45.048 191.812 44.376C191.108 43.704 190.756 42.808 190.756 41.688C190.756 40.92 190.948 40.248 191.332 39.672C191.716 39.08 192.268 38.616 192.988 38.28C193.708 37.944 194.556 37.776 195.532 37.776C196.3 37.776 197.148 37.88 198.076 38.088V36.888C198.076 36.152 197.924 35.648 197.62 35.376C197.316 35.104 196.756 34.968 195.94 34.968C194.628 34.968 193.18 35.216 191.596 35.712V33.384C192.188 33.08 192.932 32.84 193.828 32.664C194.724 32.472 195.636 32.376 196.564 32.376C198.212 32.376 199.412 32.712 200.164 33.384C200.932 34.04 201.316 35.08 201.316 36.504V45H198.556ZM195.652 43.032C196.052 43.032 196.46 42.944 196.876 42.768C197.308 42.592 197.708 42.352 198.076 42.048V39.96C197.372 39.848 196.74 39.792 196.18 39.792C194.788 39.792 194.092 40.352 194.092 41.472C194.092 41.968 194.228 42.352 194.5 42.624C194.772 42.896 195.156 43.032 195.652 43.032ZM212.905 45L212.617 43.92C211.625 44.816 210.449 45.264 209.089 45.264C208.081 45.264 207.193 45.016 206.425 44.52C205.657 44.008 205.057 43.272 204.625 42.312C204.209 41.352 204.001 40.224 204.001 38.928C204.001 36.944 204.473 35.36 205.417 34.176C206.361 32.976 207.609 32.376 209.161 32.376C210.425 32.376 211.521 32.736 212.449 33.456V27.24H215.953V45H212.905ZM210.241 42.624C211.009 42.624 211.745 42.4 212.449 41.952V35.616C211.761 35.216 210.969 35.016 210.073 35.016C209.225 35.016 208.593 35.336 208.177 35.976C207.761 36.6 207.553 37.552 207.553 38.832C207.553 40.112 207.769 41.064 208.201 41.688C208.649 42.312 209.329 42.624 210.241 42.624Z" fill="white"/>
<path d="M326.982 31V22.684L324.28 23.734V22.614L327.08 21.298H328.382V31H326.982ZM344.813 31V26.184C344.813 25.7173 344.724 25.372 344.547 25.148C344.37 24.924 344.09 24.812 343.707 24.812C343.026 24.812 342.34 25.022 341.649 25.442C341.658 25.5073 341.663 25.5773 341.663 25.652C341.663 25.7267 341.663 25.8013 341.663 25.876V31H340.277V26.184C340.277 25.7173 340.188 25.372 340.011 25.148C339.834 24.924 339.554 24.812 339.171 24.812C338.462 24.812 337.78 25.0173 337.127 25.428V31H335.741V23.902H336.903L337.043 24.616C337.939 24 338.812 23.692 339.661 23.692C340.529 23.692 341.117 24.0233 341.425 24.686C342.349 24.0233 343.273 23.692 344.197 23.692C344.841 23.692 345.336 23.874 345.681 24.238C346.026 24.602 346.199 25.12 346.199 25.792V31H344.813ZM348.293 31V23.902H349.679V31H348.293ZM348.993 22.642C348.723 22.642 348.508 22.5673 348.349 22.418C348.2 22.2593 348.125 22.054 348.125 21.802C348.125 21.55 348.2 21.3493 348.349 21.2C348.508 21.0413 348.723 20.962 348.993 20.962C349.264 20.962 349.474 21.0413 349.623 21.2C349.782 21.3493 349.861 21.55 349.861 21.802C349.861 22.054 349.782 22.2593 349.623 22.418C349.474 22.5673 349.264 22.642 348.993 22.642ZM356.608 31V26.254C356.608 25.7593 356.505 25.3953 356.3 25.162C356.104 24.9287 355.791 24.812 355.362 24.812C354.624 24.812 353.901 25.05 353.192 25.526V31H351.806V23.902H352.968L353.108 24.686C353.994 24.0233 354.928 23.692 355.908 23.692C356.589 23.692 357.107 23.874 357.462 24.238C357.816 24.5927 357.994 25.1107 357.994 25.792V31H356.608ZM320.877 51V49.908C322.221 48.5453 323.201 47.5047 323.817 46.786C324.443 46.058 324.872 45.4747 325.105 45.036C325.339 44.5973 325.455 44.182 325.455 43.79C325.455 43.3233 325.311 42.9593 325.021 42.698C324.741 42.4273 324.359 42.292 323.873 42.292C323.043 42.292 322.133 42.642 321.143 43.342V42.152C321.601 41.788 322.063 41.522 322.529 41.354C323.005 41.1767 323.523 41.088 324.083 41.088C324.933 41.088 325.614 41.326 326.127 41.802C326.65 42.278 326.911 42.908 326.911 43.692C326.911 44.2147 326.771 44.7467 326.491 45.288C326.211 45.82 325.754 46.4407 325.119 47.15C324.494 47.8593 323.617 48.7553 322.487 49.838H327.359V51H320.877ZM332.245 50.034C332.982 50.034 333.523 49.726 333.869 49.11C334.214 48.4847 334.387 47.4953 334.387 46.142C334.387 44.8073 334.214 43.8273 333.869 43.202C333.523 42.5767 332.982 42.264 332.245 42.264C331.507 42.264 330.966 42.5767 330.621 43.202C330.275 43.8273 330.103 44.8073 330.103 46.142C330.103 47.486 330.275 48.4707 330.621 49.096C330.966 49.7213 331.507 50.034 332.245 50.034ZM332.245 51.21C331.097 51.21 330.215 50.776 329.599 49.908C328.983 49.0307 328.675 47.7753 328.675 46.142C328.675 44.518 328.978 43.272 329.585 42.404C330.201 41.5267 331.087 41.088 332.245 41.088C333.393 41.088 334.275 41.522 334.891 42.39C335.507 43.258 335.815 44.5087 335.815 46.142C335.815 47.7753 335.507 49.0307 334.891 49.908C334.284 50.776 333.402 51.21 332.245 51.21ZM340.448 50.034C341.185 50.034 341.726 49.726 342.072 49.11C342.417 48.4847 342.59 47.4953 342.59 46.142C342.59 44.8073 342.417 43.8273 342.072 43.202C341.726 42.5767 341.185 42.264 340.448 42.264C339.71 42.264 339.169 42.5767 338.824 43.202C338.478 43.8273 338.306 44.8073 338.306 46.142C338.306 47.486 338.478 48.4707 338.824 49.096C339.169 49.7213 339.71 50.034 340.448 50.034ZM340.448 51.21C339.3 51.21 338.418 50.776 337.802 49.908C337.186 49.0307 336.878 47.7753 336.878 46.142C336.878 44.518 337.181 43.272 337.788 42.404C338.404 41.5267 339.29 41.088 340.448 41.088C341.596 41.088 342.478 41.522 343.094 42.39C343.71 43.258 344.018 44.5087 344.018 46.142C344.018 47.7753 343.71 49.0307 343.094 49.908C342.487 50.776 341.605 51.21 340.448 51.21ZM349.781 51V44.994H348.465V44.098L349.781 43.93V42.782C349.781 41.2233 350.528 40.444 352.021 40.444C352.544 40.444 353.01 40.528 353.421 40.696V41.676C352.945 41.6013 352.581 41.564 352.329 41.564C351.9 41.564 351.596 41.648 351.419 41.816C351.251 41.9747 351.167 42.2407 351.167 42.614V43.902H353.337V44.994H351.167V51H349.781ZM358.667 50.832C358.209 51.0093 357.691 51.098 357.113 51.098C355.787 51.098 355.125 50.4353 355.125 49.11V44.994H353.837V44.098L355.167 43.93L355.377 41.914H356.511V43.902H358.611V44.994H356.511V49.04C356.511 49.3853 356.585 49.628 356.735 49.768C356.893 49.908 357.159 49.978 357.533 49.978C357.915 49.978 358.293 49.9313 358.667 49.838V50.832Z" fill="white"/>
</svg>
