<svg width="16" height="6" viewBox="0 0 16 6" fill="none" xmlns="http://www.w3.org/2000/svg">
<path fill-rule="evenodd" clip-rule="evenodd" d="M5.8341 2.0137C5.42615 0.841356 4.31133 0 3 0C1.34315 0 0 1.34315 0 3C0 4.65685 1.34315 6 3 6C4.31133 6 5.42615 5.15864 5.8341 3.9863C5.88806 3.99531 5.94348 4 6 4H10V6H12V4H13V6H15V4C15.5523 4 16 3.55228 16 3C16 2.44772 15.5523 2 15 2H6C5.94348 2 5.88806 2.00469 5.8341 2.0137ZM2 3C2 2.44772 2.44772 2 3 2C3.55228 2 4 2.44772 4 3C4 3.55228 3.55228 4 3 4C2.44772 4 2 3.55228 2 3Z" fill="#232F3E"/>
</svg>
