<svg width="14" height="16" viewBox="0 0 14 16" fill="none" xmlns="http://www.w3.org/2000/svg">
<path fill-rule="evenodd" clip-rule="evenodd" d="M2 0C0.895431 0 0 0.895431 0 2V14C0 15.1046 0.89543 16 2 16H12C13.1046 16 14 15.1046 14 14V2C14 0.895431 13.1046 0 12 0H2ZM3 3C2.44772 3 2 3.44772 2 4C2 4.55228 2.44772 5 3 5H10C10.5523 5 11 4.55228 11 4C11 3.44772 10.5523 3 10 3H3ZM2 8C2 7.44772 2.44772 7 3 7H7C7.55228 7 8 7.44772 8 8C8 8.55229 7.55228 9 7 9H3C2.44772 9 2 8.55229 2 8ZM3 11C2.44772 11 2 11.4477 2 12C2 12.5523 2.44772 13 3 13H9C9.55229 13 10 12.5523 10 12C10 11.4477 9.55229 11 9 11H3Z" fill="#232F3E"/>
</svg>
