<svg width="14" height="14" viewBox="0 0 14 14" fill="none" xmlns="http://www.w3.org/2000/svg">
<path fill-rule="evenodd" clip-rule="evenodd" d="M7.38577 0.0793993C7.61717 0.178515 7.80154 0.362889 7.90066 0.594286L9.37629 4.03931L13.1087 4.37815C13.6476 4.42707 14.0448 4.90362 13.9959 5.44255C13.9732 5.69325 13.8548 5.92558 13.6653 6.09135L10.8449 8.55933L11.6761 12.2138C11.7961 12.7414 11.4656 13.2665 10.9379 13.3865C10.6924 13.4423 10.4349 13.4015 10.2187 13.2726L6.99998 11.3528L3.78123 13.2726C3.31647 13.5498 2.715 13.3977 2.43781 12.933C2.30886 12.7168 2.26807 12.4592 2.3239 12.2138L3.15502 8.55933L0.334604 6.09135C-0.0726414 5.73499 -0.113895 5.11597 0.242462 4.70872C0.408232 4.51928 0.640556 4.40091 0.891257 4.37815L4.62366 4.03931L6.09929 0.594286C6.31236 0.0968525 6.88834 -0.13367 7.38577 0.0793993Z" fill="#232F3E"/>
</svg>
