<svg width="24" height="24" viewBox="0 0 24 24" fill="none" xmlns="http://www.w3.org/2000/svg">
<path d="M21.78 2C22.9415 2 24 2.67958 24 3.78V16.22C24 17.3198 22.9346 18 21.78 18H12.349L7.62469 21.7809C6.99969 22.2809 6.08752 21.8788 6.00589 21.112L6 21V18H2.22C1.11788 18 0.0970384 17.3803 0.00651201 16.3674L0 16.22V3.78C0 2.68017 1.0654 2 2.22 2H21.78ZM21.78 4H2.22C2.13673 4 2.06083 4.01127 2 4.02848V15.9715C2.06083 15.9887 2.13673 16 2.22 16H6.983L7 16C7.00578 16 7.01155 16 7.01731 16.0001L7.06 16C7.61228 16 8.06 16.4477 8.06 17C8.06 17.1191 8.03917 17.2334 8.00096 17.3393L8 18.9194L11.3652 16.2273C11.3998 16.1989 11.4363 16.1727 11.4745 16.149C11.4826 16.1441 11.4912 16.1389 11.4998 16.1339C11.5246 16.1196 11.5499 16.1063 11.5759 16.0941C11.5902 16.0874 11.6042 16.0813 11.6182 16.0755C11.6374 16.0675 11.6573 16.06 11.6774 16.0532C11.6991 16.0458 11.7211 16.0391 11.7433 16.0333C11.7578 16.0294 11.7725 16.0259 11.7874 16.0227C11.8083 16.0181 11.8293 16.0143 11.8504 16.0111C11.899 16.0038 11.949 16 12 16L11.9123 16.0037C11.9307 16.0021 11.9491 16.0011 11.9674 16.0005L12 16H21.78C21.8633 16 21.9392 15.9887 22 15.9715V4.02722C21.9398 4.0108 21.8643 4 21.78 4Z" fill="white"/>
</svg>
