<svg width="24" height="24" viewBox="0 0 24 24" fill="none" xmlns="http://www.w3.org/2000/svg">
<path fill-rule="evenodd" clip-rule="evenodd" d="M4 2H10C10.5523 2 11 2.44772 11 3C11 3.55228 10.5523 4 10 4H4V19.88C4 19.9118 4.01264 19.9423 4.03515 19.9649C4.05765 19.9874 4.08817 20 4.12 20H19.88C19.9118 20 19.9423 19.9874 19.9649 19.9649C19.9874 19.9423 20 19.9118 20 19.88V14C20 13.4477 20.4477 13 21 13C21.5523 13 22 13.4477 22 14V19.88C22 20.4423 21.7766 20.9815 21.3791 21.3791C20.9815 21.7766 20.4423 22 19.88 22H4.12C3.55774 22 3.01851 21.7766 2.62093 21.3791C2.22336 20.9815 2 20.4423 2 19.88V4C2 2.89543 2.89543 2 4 2ZM20 8.66C20 9.21228 20.4477 9.66 21 9.66C21.5523 9.66 22 9.21228 22 8.66V3C22 2.44772 21.5523 2 21 2H15.34C14.7877 2 14.34 2.44772 14.34 3C14.34 3.55228 14.7877 4 15.34 4H18.5858L10.3429 12.2429C9.95237 12.6334 9.95237 13.2666 10.3429 13.6571C10.7334 14.0476 11.3666 14.0476 11.7571 13.6571L20 5.41421V8.66Z" fill="white"/>
</svg>
