<svg width="24" height="24" viewBox="0 0 24 24" fill="none" xmlns="http://www.w3.org/2000/svg">
<path fill-rule="evenodd" clip-rule="evenodd" d="M24 12C24 18.6274 18.6274 24 12 24C5.37258 24 0 18.6274 0 12C0 5.37258 5.37258 0 12 0C18.6274 0 24 5.37258 24 12ZM2 12C2 17.5228 6.47715 22 12 22C17.5228 22 22 17.5228 22 12C22 6.47715 17.5228 2 12 2C6.47715 2 2 6.47715 2 12ZM9.95127 8.37573C10.2576 7.59965 11.1392 7.01384 12.025 7.0006C13.8809 6.97287 15.0048 7.63717 15.0016 9.08571C15 9.83844 14.6331 10.2666 13.4239 11.0726L13.1937 11.2257C11.6048 12.285 10.94 13.0396 10.9556 14.4664C10.9617 15.0187 11.4143 15.4614 11.9665 15.4554C12.5188 15.4493 12.9616 14.9967 12.9555 14.4445C12.9499 13.9304 13.2453 13.5951 14.3031 12.8898L14.5332 12.7368C16.2553 11.5889 16.998 10.7221 17.0016 9.0901C17.0079 6.2501 14.8228 4.95857 11.9951 5.00083C10.3132 5.02596 8.70031 6.0978 8.09097 7.64136C7.88818 8.15506 8.14023 8.7359 8.65393 8.93869C9.16764 9.14148 9.74847 8.88944 9.95127 8.37573ZM12 19.5C12.6904 19.5 13.25 18.9404 13.25 18.25C13.25 17.5596 12.6904 17 12 17C11.3096 17 10.75 17.5596 10.75 18.25C10.75 18.9404 11.3096 19.5 12 19.5Z" fill="white"/>
</svg>
