<svg width="16" height="14" viewBox="0 0 16 14" fill="none" xmlns="http://www.w3.org/2000/svg">
<path fill-rule="evenodd" clip-rule="evenodd" d="M14.9492 2H1C0.447715 2 0 1.55228 0 1C0 0.447715 0.447715 0 1 0H14.9492C15.5015 0 15.9492 0.447715 15.9492 1C15.9492 1.55228 15.5015 2 14.9492 2ZM1 8H14.9492C15.5015 8 15.9492 7.55228 15.9492 7C15.9492 6.44772 15.5015 6 14.9492 6H1C0.447715 6 0 6.44772 0 7C0 7.55228 0.447715 8 1 8ZM1 14H14.9492C15.5015 14 15.9492 13.5523 15.9492 13C15.9492 12.4477 15.5015 12 14.9492 12H1C0.447715 12 0 12.4477 0 13C0 13.5523 0.447715 14 1 14Z" fill="white"/>
</svg>
