<svg width="20" height="19" viewBox="0 0 20 19" fill="none" xmlns="http://www.w3.org/2000/svg">
<g clip-path="url(#clip0_1_3292)">
<path fill-rule="evenodd" clip-rule="evenodd" d="M19.7498 1.03734C19.5831 0.879155 19.3853 0.799831 19.157 0.799831C18.9286 0.799831 18.7312 0.879155 18.5641 1.03734L16.8514 2.65005C15.9115 1.80833 14.8355 1.1561 13.6234 0.693658C12.4116 0.231219 11.1639 0 9.88154 0C7.46602 0 5.35808 0.693658 3.55739 2.08128C1.7567 3.46875 0.571013 5.27907 0 7.51255V7.60001C0 7.70833 0.0417223 7.80208 0.125167 7.88125C0.208611 7.96041 0.307419 8 0.421589 8H3.04346C3.23671 8 3.36834 7.90411 3.43869 7.71247C3.80756 6.87919 4.04027 6.39175 4.13697 6.24998C4.75181 5.29994 5.56863 4.55411 6.58759 4.01235C7.60655 3.47074 8.70443 3.19979 9.88138 3.19979C11.647 3.19979 13.1797 3.7707 14.4797 4.91237L12.6612 6.63739C12.4947 6.79573 12.4111 6.98337 12.4111 7.20002C12.4111 7.41666 12.4947 7.60415 12.6612 7.76249C12.8283 7.92083 13.0261 8 13.2544 8H19.157C19.3853 8 19.5829 7.92083 19.7498 7.76249C19.9166 7.60415 20 7.41666 20 7.20002V1.59982C20 1.38317 19.917 1.19568 19.7498 1.03734Z" fill="black"/>
<path fill-rule="evenodd" clip-rule="evenodd" d="M18.5458 11.0003H16.138C15.9543 11.0003 15.8288 11.096 15.762 11.2878C15.4111 12.1212 15.1895 12.6085 15.0976 12.7503C14.5123 13.7 13.7349 14.4461 12.7652 14.9877C11.7954 15.5295 10.7505 15.8003 9.63037 15.8003C8.81956 15.8003 8.03785 15.6504 7.28553 15.3503C6.53321 15.0502 5.86016 14.625 5.26668 14.075L6.98464 12.3626C7.14347 12.2044 7.22289 12.0166 7.22289 11.8001C7.22289 11.5835 7.14347 11.3958 6.98464 11.2377C6.8258 11.0792 6.63772 11 6.4204 11H0.802646C0.58517 11 0.39709 11.0792 0.238254 11.2377C0.0794181 11.3958 0 11.5835 0 11.8001V17.4002C0 17.6167 0.0794181 17.8045 0.238254 17.9627C0.397244 18.1209 0.585324 18.2003 0.802646 18.2003C1.01997 18.2003 1.20805 18.1209 1.36688 17.9627L2.98449 16.35C3.87902 17.2 4.89683 17.8542 6.03793 18.3125C7.17902 18.7709 8.35983 19 9.58034 19C11.871 19 13.8689 18.3064 15.5743 16.9188C17.2796 15.5313 18.3998 13.7209 18.9349 11.4876C18.9434 11.471 18.9474 11.4417 18.9474 11.4001C18.9474 11.2918 18.9075 11.1982 18.8281 11.1189C18.7485 11.04 18.6545 11.0003 18.5458 11.0003Z" fill="black"/>
</g>
<defs>
<clipPath id="clip0_1_3292">
<rect width="20" height="19" fill="white"/>
</clipPath>
</defs>
</svg>
