<svg width="63" height="25" viewBox="0 0 63 25" fill="none" xmlns="http://www.w3.org/2000/svg">
<rect y="1" width="63" height="24" fill="#0B0C0C"/>
<path d="M18.176 9.616C18.176 10.2027 18.0107 10.736 17.68 11.216C17.36 11.696 16.912 12.08 16.336 12.368C17.136 12.7307 17.712 13.1253 18.064 13.552C18.416 13.9787 18.592 14.5013 18.592 15.12C18.592 16.08 18.2347 16.8427 17.52 17.408C16.816 17.9627 15.856 18.24 14.64 18.24C13.4667 18.24 12.528 17.9733 11.824 17.44C11.1307 16.9067 10.784 16.1813 10.784 15.264C10.784 14.6133 10.9653 14.0267 11.328 13.504C11.7013 12.9813 12.24 12.56 12.944 12.24C12.3573 11.9413 11.92 11.5893 11.632 11.184C11.3547 10.768 11.216 10.2773 11.216 9.712C11.216 8.79467 11.5307 8.05867 12.16 7.504C12.8 6.94933 13.6427 6.672 14.688 6.672C15.7227 6.672 16.56 6.944 17.2 7.488C17.8507 8.032 18.176 8.74133 18.176 9.616ZM13.936 12.688C12.8587 13.296 12.32 14.064 12.32 14.992C12.32 15.6213 12.5227 16.112 12.928 16.464C13.344 16.8053 13.9307 16.976 14.688 16.976C15.4347 16.976 16.016 16.816 16.432 16.496C16.848 16.1653 17.056 15.7013 17.056 15.104C17.056 14.6667 16.9013 14.3093 16.592 14.032C16.2933 13.744 15.7333 13.4293 14.912 13.088L13.936 12.688ZM12.72 9.632C12.72 10.0693 12.864 10.448 13.152 10.768C13.44 11.0773 13.8933 11.36 14.512 11.616L15.344 11.952C16.2293 11.3653 16.672 10.64 16.672 9.776C16.672 9.168 16.496 8.69867 16.144 8.368C15.792 8.03733 15.3013 7.872 14.672 7.872C14.0533 7.872 13.5733 8.02667 13.232 8.336C12.8907 8.64533 12.72 9.07733 12.72 9.632ZM35.1145 18V12.496C35.1145 11.9627 35.0132 11.568 34.8105 11.312C34.6078 11.056 34.2878 10.928 33.8505 10.928C33.0718 10.928 32.2878 11.168 31.4985 11.648C31.5092 11.7227 31.5145 11.8027 31.5145 11.888C31.5145 11.9733 31.5145 12.0587 31.5145 12.144V18H29.9305V12.496C29.9305 11.9627 29.8292 11.568 29.6265 11.312C29.4238 11.056 29.1038 10.928 28.6665 10.928C27.8558 10.928 27.0772 11.1627 26.3305 11.632V18H24.7465V9.888H26.0745L26.2345 10.704C27.2585 10 28.2558 9.648 29.2265 9.648C30.2185 9.648 30.8905 10.0267 31.2425 10.784C32.2985 10.0267 33.3545 9.648 34.4105 9.648C35.1465 9.648 35.7118 9.856 36.1065 10.272C36.5012 10.688 36.6985 11.28 36.6985 12.048V18H35.1145ZM39.0918 18V9.888H40.6758V18H39.0918ZM39.8918 8.448C39.5824 8.448 39.3371 8.36267 39.1558 8.192C38.9851 8.01067 38.8997 7.776 38.8997 7.488C38.8997 7.2 38.9851 6.97067 39.1558 6.8C39.3371 6.61867 39.5824 6.528 39.8918 6.528C40.2011 6.528 40.4411 6.61867 40.6118 6.8C40.7931 6.97067 40.8838 7.2 40.8838 7.488C40.8838 7.776 40.7931 8.01067 40.6118 8.192C40.4411 8.36267 40.2011 8.448 39.8918 8.448ZM48.5939 18V12.576C48.5939 12.0107 48.4765 11.5947 48.2419 11.328C48.0179 11.0613 47.6605 10.928 47.1699 10.928C46.3272 10.928 45.5005 11.2 44.6899 11.744V18H43.1059V9.888H44.4339L44.5939 10.784C45.6072 10.0267 46.6739 9.648 47.7939 9.648C48.5725 9.648 49.1645 9.856 49.5699 10.272C49.9752 10.6773 50.1779 11.2693 50.1779 12.048V18H48.5939Z" fill="white"/>
</svg>
