<svg width="21" height="8" viewBox="0 0 21 8" fill="none" xmlns="http://www.w3.org/2000/svg">
<path fill-rule="evenodd" clip-rule="evenodd" d="M8.29024 5C7.8462 6.72523 6.2801 8 4.41626 8C2.20712 8 0.41626 6.20914 0.41626 4C0.41626 1.79086 2.20712 0 4.41626 0C6.2801 0 7.8462 1.27477 8.29024 3H12.4163H14.4163H16.4163H18.4163H19.4163C19.9685 3 20.4163 3.44772 20.4163 4C20.4163 4.55228 19.9685 5 19.4163 5H18.4163V7H16.4163V5H14.4163V7H12.4163V5H8.29024ZM6.41626 4C6.41626 2.89543 5.52083 2 4.41626 2C3.31169 2 2.41626 2.89543 2.41626 4C2.41626 5.10457 3.31169 6 4.41626 6C5.52083 6 6.41626 5.10457 6.41626 4Z" fill="#FF7817"/>
</svg>
