<svg width="17" height="22" viewBox="0 0 17 22" fill="none" xmlns="http://www.w3.org/2000/svg">
<path fill-rule="evenodd" clip-rule="evenodd" d="M16.8324 2.44444C16.8324 1.09442 15.937 0 14.8324 0H2.8324C1.72783 0 0.832397 1.09442 0.832397 2.44444V19.5556C0.832397 20.9056 1.72783 22 2.8324 22H14.8324C15.937 22 16.8324 20.9056 16.8324 19.5556V2.44444ZM2.8324 2H14.8324V20H2.8324V2ZM4.8324 5C4.8324 4.44772 5.28011 4 5.8324 4H11.8324C12.3847 4 12.8324 4.44772 12.8324 5C12.8324 5.55228 12.3847 6 11.8324 6H5.8324C5.28011 6 4.8324 5.55228 4.8324 5ZM5.8324 8C5.28011 8 4.8324 8.44771 4.8324 9C4.8324 9.55229 5.28011 10 5.8324 10H8.8324C9.38468 10 9.8324 9.55229 9.8324 9C9.8324 8.44771 9.38468 8 8.8324 8H5.8324ZM4.8324 13C4.8324 12.4477 5.28011 12 5.8324 12H10.8324C11.3847 12 11.8324 12.4477 11.8324 13C11.8324 13.5523 11.3847 14 10.8324 14H5.8324C5.28011 14 4.8324 13.5523 4.8324 13ZM5.8324 16C5.28011 16 4.8324 16.4477 4.8324 17C4.8324 17.5523 5.28011 18 5.8324 18H8.8324C9.38468 18 9.8324 17.5523 9.8324 17C9.8324 16.4477 9.38468 16 8.8324 16H5.8324Z" fill="#FF7817"/>
</svg>
